<svg xmlns="http://www.w3.org/2000/svg" xmlns:xlink="http://www.w3.org/1999/xlink" width="500" zoomAndPan="magnify" viewBox="0 0 375 374.999991" height="500" preserveAspectRatio="xMidYMid meet" version="1.2"><defs><clipPath id="562f4ad3bb"><path d="M 190.527344 100 L 273.308594 100 L 273.308594 184.039062 L 190.527344 184.039062 Z M 190.527344 100 "/></clipPath><clipPath id="9346fd1382"><path d="M 190.527344 49.011719 L 325.554688 49.011719 L 325.554688 184.039062 L 190.527344 184.039062 Z M 190.527344 49.011719 "/></clipPath><clipPath id="76df01be98"><path d="M 235.527344 49.011719 L 280.554688 49.011719 C 305.40625 49.011719 325.554688 69.15625 325.554688 94.011719 L 325.554688 139.039062 C 325.554688 163.890625 305.40625 184.039062 280.554688 184.039062 L 235.527344 184.039062 C 210.675781 184.039062 190.527344 163.890625 190.527344 139.039062 L 190.527344 94.011719 C 190.527344 69.15625 210.675781 49.011719 235.527344 49.011719 Z M 235.527344 49.011719 "/></clipPath><clipPath id="1bab22d04c"><path d="M 190.523438 190.964844 L 274.558594 190.964844 L 274.558594 273.746094 L 190.523438 273.746094 Z M 190.523438 190.964844 "/></clipPath><clipPath id="8b3b80054a"><path d="M 190.523438 190.960938 L 325.550781 190.960938 L 325.550781 325.988281 L 190.523438 325.988281 Z M 190.523438 190.960938 "/></clipPath><clipPath id="d2719f99b4"><path d="M 325.550781 235.960938 L 325.550781 280.988281 C 325.550781 305.84375 305.402344 325.988281 280.550781 325.988281 L 235.523438 325.988281 C 210.671875 325.988281 190.523438 305.84375 190.523438 280.988281 L 190.523438 235.960938 C 190.523438 211.109375 210.671875 190.960938 235.523438 190.960938 L 280.550781 190.960938 C 305.402344 190.960938 325.550781 211.109375 325.550781 235.960938 Z M 325.550781 235.960938 "/></clipPath><clipPath id="79085fc12d"><path d="M 101.683594 190.960938 L 184.460938 190.960938 L 184.460938 274.996094 L 101.683594 274.996094 Z M 101.683594 190.960938 "/></clipPath><clipPath id="1bf4502a89"><path d="M 49.441406 190.957031 L 184.46875 190.957031 L 184.46875 325.984375 L 49.441406 325.984375 Z M 49.441406 190.957031 "/></clipPath><clipPath id="4f1775a9dc"><path d="M 139.46875 325.984375 L 94.441406 325.984375 C 69.589844 325.984375 49.441406 305.839844 49.441406 280.984375 L 49.441406 235.957031 C 49.441406 211.105469 69.589844 190.957031 94.441406 190.957031 L 139.46875 190.957031 C 164.320312 190.957031 184.46875 211.105469 184.46875 235.957031 L 184.46875 280.984375 C 184.46875 305.839844 164.320312 325.984375 139.46875 325.984375 Z M 139.46875 325.984375 "/></clipPath><clipPath id="2de717c9a4"><path d="M 100.429688 101.253906 L 184.46875 101.253906 L 184.46875 184.03125 L 100.429688 184.03125 Z M 100.429688 101.253906 "/></clipPath><clipPath id="d40ef5026e"><path d="M 49.445312 49.007812 L 184.472656 49.007812 L 184.472656 184.035156 L 49.445312 184.035156 Z M 49.445312 49.007812 "/></clipPath><clipPath id="50e76d8c49"><path d="M 49.445312 139.035156 L 49.445312 94.007812 C 49.445312 69.152344 69.59375 49.007812 94.445312 49.007812 L 139.472656 49.007812 C 164.324219 49.007812 184.472656 69.152344 184.472656 94.007812 L 184.472656 139.035156 C 184.472656 163.886719 164.324219 184.035156 139.472656 184.035156 L 94.445312 184.035156 C 69.59375 184.035156 49.445312 163.886719 49.445312 139.035156 Z M 49.445312 139.035156 "/></clipPath></defs><g id="20acd256c1"><g clip-rule="nonzero" clip-path="url(#562f4ad3bb)"><path style=" stroke:none;fill-rule:nonzero;fill:#5271ff;fill-opacity:1;" d="M 190.527344 100 L 273.308594 100 L 273.308594 184.070312 L 190.527344 184.070312 Z M 190.527344 100 "/></g><g clip-rule="nonzero" clip-path="url(#9346fd1382)"><g clip-rule="nonzero" clip-path="url(#76df01be98)"><path style=" stroke:none;fill-rule:nonzero;fill:#5271ff;fill-opacity:1;" d="M 190.527344 49.011719 L 325.554688 49.011719 L 325.554688 184.039062 L 190.527344 184.039062 Z M 190.527344 49.011719 "/></g></g><g clip-rule="nonzero" clip-path="url(#1bab22d04c)"><path style=" stroke:none;fill-rule:nonzero;fill:#004aad;fill-opacity:1;" d="M 274.558594 190.964844 L 274.558594 273.746094 L 190.488281 273.746094 L 190.488281 190.964844 Z M 274.558594 190.964844 "/></g><g clip-rule="nonzero" clip-path="url(#8b3b80054a)"><g clip-rule="nonzero" clip-path="url(#d2719f99b4)"><path style=" stroke:none;fill-rule:nonzero;fill:#004aad;fill-opacity:1;" d="M 325.550781 190.960938 L 325.550781 325.988281 L 190.523438 325.988281 L 190.523438 190.960938 Z M 325.550781 190.960938 "/></g></g><g clip-rule="nonzero" clip-path="url(#79085fc12d)"><path style=" stroke:none;fill-rule:nonzero;fill:#5ce1e6;fill-opacity:1;" d="M 184.460938 274.996094 L 101.683594 274.996094 L 101.683594 190.925781 L 184.460938 190.925781 Z M 184.460938 274.996094 "/></g><g clip-rule="nonzero" clip-path="url(#1bf4502a89)"><g clip-rule="nonzero" clip-path="url(#4f1775a9dc)"><path style=" stroke:none;fill-rule:nonzero;fill:#5ce1e6;fill-opacity:1;" d="M 184.46875 325.984375 L 49.441406 325.984375 L 49.441406 190.957031 L 184.46875 190.957031 Z M 184.46875 325.984375 "/></g></g><g clip-rule="nonzero" clip-path="url(#2de717c9a4)"><path style=" stroke:none;fill-rule:nonzero;fill:#004aad;fill-opacity:1;" d="M 100.429688 184.03125 L 100.429688 101.253906 L 184.503906 101.253906 L 184.503906 184.03125 Z M 100.429688 184.03125 "/></g><g clip-rule="nonzero" clip-path="url(#d40ef5026e)"><g clip-rule="nonzero" clip-path="url(#50e76d8c49)"><path style=" stroke:none;fill-rule:nonzero;fill:#004aad;fill-opacity:1;" d="M 49.445312 184.035156 L 49.445312 49.007812 L 184.472656 49.007812 L 184.472656 184.035156 Z M 49.445312 184.035156 "/></g></g></g></svg>